@startuml

scale 0.6

skinparam class {
  ArrowColor DarkBlue
  ArrowFontColor DarkBlue
  BackgroundColor LightBlue
  BorderColor DarkGrey
}
skinparam dpi 300
skinparam stereotypeCBackgroundColor Wheat
skinparam classAttributeFontColor  Green

class Needs <<HIT2GAP>>{

}

class Privacy <<HIT2GAP>>{

}

class OccupantPreference <<HIT2GAP>>{
  id xsd:string
  minValue xsd:double
  maxValue xsd:double
}

class ThermalComfort <<HIT2GAP>>{

}


class ISOAdaptiveComfort <<HIT2GAP>>{

}

class ASHRAEAdaptiveComfort <<HIT2GAP>>{

}

class ASHRAEAdaptiveEnvelope <<HIT2GAP>>{

}

class OtherComfortEnvelope <<HIT2GAP>>{

}

class VisualComfort <<HIT2GAP>>{

}

class AcousticComfort <<HIT2GAP>>{

}

class IAQ <<HIT2GAP>>{

}

class Luminosity <<I,orchid) HIT2GAP>>{

}

class Noise <<I,orchid) HIT2GAP>>{

}

class Temperature <<I,orchid) HIT2GAP>>{

}

Needs <|-- Privacy
Needs <|-- OccupantPreference
OccupantPreference ..[#orchid] Luminosity
OccupantPreference ..[#orchid] Noise
OccupantPreference ..[#orchid] Temperature

Needs <|-- ThermalComfort
Needs<|-- VisualComfort
Needs <|-- AcousticComfort
Needs <|-- IAQ

ThermalComfort<|-- ISOAdaptiveComfort
ThermalComfort<|-- ASHRAEAdaptiveComfort
ThermalComfort<|-- ASHRAEAdaptiveEnvelope
ThermalComfort<|-- OtherComfortEnvelope

@enduml