@startuml

scale 0.2

skinparam class {
  ArrowColor DarkBlue
  ArrowFontColor DarkBlue
  BackgroundColor LightBlue
  BorderColor DarkGrey
}
skinparam dpi 300
skinparam stereotypeCBackgroundColor Wheat
skinparam classAttributeFontColor  Green

class Property <<ssn>>
class PhysicProperties <<bem>>

class Air <<bem>>
class Area <<bem>>
class Capacity <<bem>>
class ProductionCapacity <<bem>>
class Color <<bem>>
class Conductivity <<bem>>
class Density <<bem>>
class Depth <<bem>>
class EquivalentDepth <<bem>>
class Energy <<bem>>
class ElectricEnergy <<bem>>
class HeatFluxEnergy <<bem>>
class Evaporation <<bem>>
class Condensation <<bem>>
class Medium <<bem>>
class Precipitation <<bem>>
class Pressure <<bem>>
class Radiation <<bem>>
class IncidentRadiation <<bem>>
class AbsorbedIncidentRadiation <<bem>>
class ReflectedIncidentradiation <<bem>>
class AbsorbedScatteredIncidentRadiation <<bem>>
class TransmittedIncidentRadiation <<bem>>
class Rainfall <<bem>>
class Reflectivity <<bem>>
class Shape <<bem>>
class CrossSection <<bem>>
class Height <<bem>>
class Length <<bem>>
class Slope <<bem>>
class Weight <<bem>>
class Width <<bem>>
class Speed <<bem>>
class Temperature  <<bem>>
class Time <<bem>>
class Transparency <<bem>>
class Velocity <<bem>>
class Visibility <<bem>>
class Volume <<bem>>
class Discharge <<bem>>
class Flow <<bem>>
class Inflow <<bem>>
class Outflow <<bem>>
class AirMedium <<bem>>

Property <|-- PhysicProperties

PhysicProperties <|-- Air
PhysicProperties <|-- Area
PhysicProperties <|-- Capacity
Capacity<|-- ProductionCapacity
PhysicProperties <|-- Color
PhysicProperties <|-- Conductivity
PhysicProperties <|-- Density
PhysicProperties <|-- Depth
PhysicProperties <|--EquivalentDepth
PhysicProperties <|-- Energy
Energy<|-- ElectricEnergy
Energy<|-- HeatFluxEnergy
PhysicProperties <|-- Evaporation
PhysicProperties <|-- Condensation
PhysicProperties <|-- Medium
PhysicProperties <|-- Precipitation
PhysicProperties <|-- Pressure
PhysicProperties <|-- Radiation
Radiation<|-- IncidentRadiation
IncidentRadiation<|-- AbsorbedIncidentRadiation
IncidentRadiation<|-- ReflectedIncidentradiation
IncidentRadiation<|-- AbsorbedScatteredIncidentRadiation
IncidentRadiation<|-- TransmittedIncidentRadiation
PhysicProperties <|-- Rainfall
PhysicProperties <|-- Reflectivity
PhysicProperties <|-- Shape
Shape<|-- CrossSection
Shape<|-- Height
Shape<|-- Length
Shape<|-- Slope
Shape<|-- Weight
Shape<|-- Width
PhysicProperties <|-- Speed
PhysicProperties <|-- Temperature
PhysicProperties <|-- Time
PhysicProperties <|-- Transparency
PhysicProperties <|-- Velocity
PhysicProperties <|-- Visibility
PhysicProperties <|-- Volume
Volume<|-- Discharge
Volume<|-- Flow
Flow<|-- Inflow
Flow<|-- Outflow
Medium<|-- AirMedium

@enduml